<svg width="20" height="18" viewBox="0 0 20 18" fill="none" xmlns="http://www.w3.org/2000/svg">
<g clip-path="url(#clip0_16_837)">
<path d="M20 9.01472C20 4.06461 15.5229 0.0517578 10 0.0517578C4.47715 0.0517578 0 4.06461 0 9.01472C0 13.4883 3.65684 17.1964 8.4375 17.8688V11.6056H5.89844V9.01472H8.4375V7.04007C8.4375 4.79373 9.93047 3.55291 12.2146 3.55291C13.3084 3.55291 14.4531 3.72797 14.4531 3.72797V5.9337H13.1922C11.95 5.9337 11.5625 6.62465 11.5625 7.33416V9.01472H14.3359L13.8926 11.6056H11.5625V17.8688C16.3432 17.1964 20 13.4883 20 9.01472Z" fill="white"/>
</g>
<defs>
<clipPath id="clip0_16_837">
<rect width="20" height="17.9259" fill="white" transform="translate(0 0.0517578)"/>
</clipPath>
</defs>
</svg>
