<svg width="21" height="18" viewBox="0 0 21 18" fill="none" xmlns="http://www.w3.org/2000/svg">
<g clip-path="url(#clip0_16_841)">
<path d="M10.6675 1.66579C13.3394 1.66579 13.6558 1.67629 14.7065 1.71831C15.6831 1.75682 16.2105 1.90387 16.562 2.02641C17.0269 2.18746 17.3628 2.38353 17.7105 2.69513C18.062 3.01024 18.2769 3.30783 18.4565 3.72447C18.5933 4.03958 18.7573 4.51573 18.8003 5.38752C18.8472 6.33283 18.8589 6.61643 18.8589 9.00772C18.8589 11.4025 18.8472 11.6861 18.8003 12.6279C18.7573 13.5032 18.5933 13.9759 18.4565 14.291C18.2769 14.7076 18.0581 15.0087 17.7105 15.3203C17.3589 15.6354 17.0269 15.828 16.562 15.989C16.2105 16.1116 15.6792 16.2586 14.7065 16.2971C13.6519 16.3391 13.3355 16.3496 10.6675 16.3496C7.99561 16.3496 7.6792 16.3391 6.62842 16.2971C5.65186 16.2586 5.12451 16.1116 4.77295 15.989C4.30811 15.828 3.97217 15.6319 3.62451 15.3203C3.27295 15.0052 3.05811 14.7076 2.87842 14.291C2.7417 13.9759 2.57764 13.4997 2.53467 12.6279C2.48779 11.6826 2.47607 11.399 2.47607 9.00772C2.47607 6.61293 2.48779 6.32933 2.53467 5.38752C2.57764 4.51223 2.7417 4.03958 2.87842 3.72447C3.05811 3.30783 3.27686 3.00674 3.62451 2.69513C3.97607 2.38003 4.30811 2.18746 4.77295 2.02641C5.12451 1.90387 5.65576 1.75682 6.62842 1.71831C7.6792 1.67629 7.99561 1.66579 10.6675 1.66579ZM10.6675 0.0517578C7.95264 0.0517578 7.61279 0.0622613 6.54639 0.104275C5.48389 0.146289 4.75342 0.30034 4.12061 0.520913C3.46045 0.751989 2.90186 1.05659 2.34717 1.55726C1.78857 2.05442 1.44873 2.55509 1.19092 3.14328C0.944824 3.71397 0.772949 4.36518 0.726074 5.3175C0.679199 6.27682 0.66748 6.58142 0.66748 9.01472C0.66748 11.448 0.679199 11.7526 0.726074 12.7084C0.772949 13.6608 0.944824 14.3155 1.19092 14.8827C1.44873 15.4744 1.78857 15.975 2.34717 16.4722C2.90186 16.9694 3.46045 17.2775 4.1167 17.505C4.75342 17.7256 5.47998 17.8797 6.54248 17.9217C7.60889 17.9637 7.94873 17.9742 10.6636 17.9742C13.3784 17.9742 13.7183 17.9637 14.7847 17.9217C15.8472 17.8797 16.5776 17.7256 17.2105 17.505C17.8667 17.2775 18.4253 16.9694 18.98 16.4722C19.5347 15.975 19.8784 15.4744 20.1323 14.8862C20.3784 14.3155 20.5503 13.6643 20.5972 12.7119C20.644 11.7561 20.6558 11.4515 20.6558 9.01822C20.6558 6.58492 20.644 6.28032 20.5972 5.3245C20.5503 4.37219 20.3784 3.71747 20.1323 3.15028C19.8862 2.55509 19.5464 2.05442 18.9878 1.55726C18.4331 1.06009 17.8745 0.751989 17.2183 0.524414C16.5815 0.303841 15.855 0.14979 14.7925 0.107776C13.7222 0.0622613 13.3823 0.0517578 10.6675 0.0517578Z" fill="white"/>
<path d="M10.6675 4.41064C7.83154 4.41064 5.53076 6.47283 5.53076 9.01467C5.53076 11.5565 7.83154 13.6187 10.6675 13.6187C13.5034 13.6187 15.8042 11.5565 15.8042 9.01467C15.8042 6.47283 13.5034 4.41064 10.6675 4.41064ZM10.6675 12.0012C8.82764 12.0012 7.33545 10.6637 7.33545 9.01467C7.33545 7.36562 8.82764 6.02818 10.6675 6.02818C12.5073 6.02818 13.9995 7.36562 13.9995 9.01467C13.9995 10.6637 12.5073 12.0012 10.6675 12.0012Z" fill="white"/>
<path d="M17.2065 4.22866C17.2065 4.82386 16.6675 5.30352 16.0073 5.30352C15.3433 5.30352 14.8081 4.82036 14.8081 4.22866C14.8081 3.63347 15.3472 3.15381 16.0073 3.15381C16.6675 3.15381 17.2065 3.63697 17.2065 4.22866Z" fill="white"/>
</g>
<defs>
<clipPath id="clip0_16_841">
<rect width="20" height="17.9259" fill="white" transform="translate(0.66748 0.0517578)"/>
</clipPath>
</defs>
</svg>
