<svg width="20" height="18" viewBox="0 0 20 18" fill="none" xmlns="http://www.w3.org/2000/svg">
<g clip-path="url(#clip0_16_846)">
<path d="M18.5195 0.0517578H1.47656C0.660156 0.0517578 0 0.629449 0 1.34369V16.6823C0 17.3965 0.660156 17.9777 1.47656 17.9777H18.5195C19.3359 17.9777 20 17.3965 20 16.6858V1.34369C20 0.629449 19.3359 0.0517578 18.5195 0.0517578ZM5.93359 15.3273H2.96484V6.77048H5.93359V15.3273ZM4.44922 5.60459C3.49609 5.60459 2.72656 4.91487 2.72656 4.06408C2.72656 3.2133 3.49609 2.52357 4.44922 2.52357C5.39844 2.52357 6.16797 3.2133 6.16797 4.06408C6.16797 4.91136 5.39844 5.60459 4.44922 5.60459ZM17.043 15.3273H14.0781V11.1679C14.0781 10.1771 14.0586 8.89918 12.5352 8.89918C10.9922 8.89918 10.7578 9.98104 10.7578 11.0979V15.3273H7.79688V6.77048H10.6406V7.93987H10.6797C11.0742 7.26764 12.043 6.55691 13.4844 6.55691C16.4883 6.55691 17.043 8.3285 17.043 10.6323V15.3273Z" fill="white"/>
</g>
<defs>
<clipPath id="clip0_16_846">
<rect width="20" height="17.9259" fill="white" transform="translate(0 0.0517578)"/>
</clipPath>
</defs>
</svg>
