<svg width="24" height="24" viewBox="0 0 24 24" fill="none" xmlns="http://www.w3.org/2000/svg">
<g clip-path="url(#clip0_16_833)">
<path d="M15.8358 11.168L12.3351 14.6687M23.1733 3.03586C23.284 2.99765 23.4032 2.99136 23.5174 3.01771C23.6315 3.04407 23.7359 3.102 23.8187 3.18488C23.9015 3.26777 23.9592 3.37227 23.9854 3.48644C24.0116 3.60061 24.0051 3.71985 23.9668 3.83052L17.0541 23.5861C17.0127 23.7042 16.9368 23.8072 16.8362 23.8816C16.7356 23.956 16.615 23.9985 16.49 24.0035C16.3649 24.0086 16.2413 23.9759 16.135 23.9098C16.0288 23.8437 15.9449 23.7472 15.8942 23.6328L12.1379 15.1821C12.0752 15.0413 11.9625 14.9286 11.8217 14.8659L3.371 11.1085C3.25698 11.0576 3.16085 10.9736 3.09503 10.8675C3.0292 10.7614 2.9967 10.638 3.00173 10.5133C3.00675 10.3885 3.04907 10.2681 3.12322 10.1677C3.19737 10.0672 3.29993 9.99131 3.41767 9.94974L23.1733 3.03586Z" stroke="white" stroke-width="1.5" stroke-linecap="round" stroke-linejoin="round"/>
</g>
<defs>
<clipPath id="clip0_16_833">
<rect width="24" height="24" fill="white"/>
</clipPath>
</defs>
</svg>
