<svg width="21" height="18" viewBox="0 0 21 18" fill="none" xmlns="http://www.w3.org/2000/svg">
<g clip-path="url(#clip0_16_839)">
<path d="M6.62432 16.2973C14.1696 16.2973 18.2978 10.693 18.2978 5.83443C18.2978 5.67687 18.2938 5.51582 18.286 5.35827C19.0891 4.83774 19.7821 4.193 20.3325 3.45434C19.5846 3.75258 18.7906 3.94736 17.9774 4.03203C18.8336 3.57206 19.4746 2.84947 19.7817 1.99821C18.9763 2.42603 18.0955 2.72783 17.1771 2.89065C16.5582 2.3013 15.74 1.91108 14.8489 1.78032C13.9578 1.64956 13.0435 1.78555 12.2473 2.16726C11.4511 2.54896 10.8174 3.15513 10.4441 3.89204C10.0708 4.62895 9.97871 5.45556 10.1821 6.24406C8.55126 6.17071 6.9558 5.79099 5.49917 5.12952C4.04254 4.46805 2.75726 3.53959 1.72666 2.40434C1.20285 3.21379 1.04257 4.17164 1.27838 5.0832C1.51419 5.99477 2.12841 6.79166 2.99619 7.31191C2.34471 7.29338 1.7075 7.13616 1.13721 6.85326V6.89878C1.13662 7.74823 1.46427 8.57166 2.06444 9.22908C2.66462 9.8865 3.50029 10.3373 4.42939 10.505C3.8259 10.653 3.1925 10.6745 2.57822 10.568C2.8404 11.2985 3.3505 11.9375 4.03733 12.3957C4.72416 12.8539 5.55345 13.1084 6.40947 13.1238C4.95621 14.147 3.161 14.702 1.31299 14.6994C0.985259 14.6989 0.657852 14.6809 0.33252 14.6454C2.2099 15.725 4.3938 16.2983 6.62432 16.2973Z" fill="white"/>
</g>
<defs>
<clipPath id="clip0_16_839">
<rect width="20" height="17.9259" fill="white" transform="translate(0.33252 0.0517578)"/>
</clipPath>
</defs>
</svg>
